<svg aria-hidden="true" style="position: absolute; width: 0; height: 0;" xmlns="http://www.w3.org/2000/svg" overflow="hidden">
  <defs>
    <symbol id="icon-fastforward" viewBox="0 0 24 24">
      <path d="M4 18l8.5-6L4 6v12zm9-12v12l8.5-6L13 6z"/>
      <path d="M0 0h24v24H0z" fill="none"/>
    </symbol>
    <symbol id="icon-fastrewind" viewBox="0 0 24 24">
      <path d="M11 18V6l-8.5 6 8.5 6zm.5-6l8.5 6V6l-8.5 6z"/>
      <path d="M0 0h24v24H0z" fill="none"/>
    </symbol>
    <symbol id="icon-pause" viewBox="0 0 24 24">
      <path d="M6 19h4V5H6v14zm8-14v14h4V5h-4z"/>
      <path d="M0 0h24v24H0z" fill="none"/>
    </symbol>
    <symbol id="icon-play" viewBox="0 0 24 24">
      <path d="M8 5v14l11-7z"/>
      <path d="M0 0h24v24H0z" fill="none"/>
    </symbol>
    <symbol id="icon-enlarge" viewBox="0 0 32 32">
      <path d="M32 0H19l5 5-6 6 3 3 6-6 5 5zM32 32V19l-5 5-6-6-3 3 6 6-5 5zM0 32h13l-5-5 6-6-3-3-6 6-5-5zM0 0v13l5-5 6 6 3-3-6-6 5-5z"/>
    </symbol>
    <symbol id="icon-stop" viewBox="0 0 32 32">
      <path d="M4 4h24v24H4z"/>
    </symbol>
    <symbol id="icon-volume-high" viewBox="0 0 34 32">
      <path d="M27.814 28.814a1.5 1.5 0 01-1.061-2.56C29.492 23.515 31 19.874 31 16.001s-1.508-7.514-4.247-10.253a1.5 1.5 0 112.121-2.121C32.179 6.932 34 11.327 34 16.001s-1.82 9.069-5.126 12.374a1.495 1.495 0 01-1.061.439zm-5.329-2.829a1.5 1.5 0 01-1.061-2.56c4.094-4.094 4.094-10.755 0-14.849a1.5 1.5 0 112.121-2.121c2.55 2.55 3.954 5.94 3.954 9.546s-1.404 6.996-3.954 9.546a1.495 1.495 0 01-1.061.439zm-5.328-2.828a1.5 1.5 0 01-1.061-2.56 6.508 6.508 0 000-9.192 1.5 1.5 0 112.121-2.121c3.704 3.704 3.704 9.731 0 13.435a1.495 1.495 0 01-1.061.439zM13 30a1 1 0 01-.707-.293L4.586 22H1a1 1 0 01-1-1V11a1 1 0 011-1h3.586l7.707-7.707A1 1 0 0114 3v26a1.002 1.002 0 01-1 1z"/>
    </symbol>
    <symbol id="icon-volume-medium" viewBox="0 0 32 32">
      <path d="M22.485 25.985a1.5 1.5 0 01-1.061-2.56c4.094-4.094 4.094-10.755 0-14.849a1.5 1.5 0 112.121-2.121c2.55 2.55 3.954 5.94 3.954 9.546s-1.404 6.996-3.954 9.546a1.495 1.495 0 01-1.061.439zm-5.328-2.828a1.5 1.5 0 01-1.061-2.56 6.508 6.508 0 000-9.192 1.5 1.5 0 112.121-2.121c3.704 3.704 3.704 9.731 0 13.435a1.495 1.495 0 01-1.061.439zM13 30a1 1 0 01-.707-.293L4.586 22H1a1 1 0 01-1-1V11a1 1 0 011-1h3.586l7.707-7.707A1 1 0 0114 3v26a1.002 1.002 0 01-1 1z"/>
    </symbol>
    <symbol id="icon-volume-low" viewBox="0 0 32 32">
      <path d="M17.157 23.157a1.5 1.5 0 01-1.061-2.56 6.508 6.508 0 000-9.192 1.5 1.5 0 112.121-2.121c3.704 3.704 3.704 9.731 0 13.435a1.495 1.495 0 01-1.061.439zM13 30a1 1 0 01-.707-.293L4.586 22H1a1 1 0 01-1-1V11a1 1 0 011-1h3.586l7.707-7.707A1 1 0 0114 3v26a1.002 1.002 0 01-1 1z"/>
    </symbol>
    <symbol id="icon-volume-mute" viewBox="0 0 32 32">
      <path d="M13 30a1 1 0 01-.707-.293L4.586 22H1a1 1 0 01-1-1V11a1 1 0 011-1h3.586l7.707-7.707A1 1 0 0114 3v26a1.002 1.002 0 01-1 1z"/>
    </symbol>
    <symbol id="icon-volume-mute" viewBox="0 0 32 32">
      <path d="M30 19.348V22h-2.652L24 18.652 20.652 22H18v-2.652L21.348 16 18 12.652V10h2.652L24 13.348 27.348 10H30v2.652L26.652 16 30 19.348zM13 30a1 1 0 01-.707-.293L4.586 22H1a1 1 0 01-1-1V11a1 1 0 011-1h3.586l7.707-7.707A1 1 0 0114 3v26a1.002 1.002 0 01-1 1z"/>
    </symbol>
  </defs>
</svg>

